<svg width="934" height="850" viewBox="0 0 934 850" fill="none" xmlns="http://www.w3.org/2000/svg">
<path d="M324.111 739.274C326 738.114 328.173 737.5 330.39 737.5H366.255C369.303 737.5 372.238 736.34 374.462 734.254L379 730L383.351 726.954C386.849 724.506 391.384 724.1 395.261 725.89L412.922 734.041C414.295 734.675 415.775 735.043 417.285 735.127L447.724 736.818C449.869 736.937 452.006 736.478 453.913 735.49L475.406 724.345C477.11 723.461 478.578 722.181 479.685 720.612L482.512 716.607C483.493 715.218 484.167 713.637 484.49 711.967L486.012 704.106C486.642 700.848 485.896 697.475 483.95 694.788L467.254 671.731C466.424 670.586 465.804 669.303 465.421 667.942L457.748 640.659C457.256 638.909 456.373 637.294 455.165 635.936L442.636 621.841C441.557 620.626 440.735 619.205 440.221 617.663L429.508 585.525C429.171 584.513 428.7 583.55 428.109 582.663L409 554L405.936 549.02C405.326 548.03 404.433 547.245 403.372 546.767V546.767C401.315 545.842 398.907 546.191 397.198 547.663L395.995 548.699C395.669 548.98 395.286 549.187 394.873 549.306V549.306C392.483 549.995 390.346 547.634 391.27 545.325L392.182 543.046C392.694 541.765 392.543 540.314 391.778 539.167L389 535L384.366 529.297C383.14 527.788 381.567 526.6 379.78 525.834L372 522.5L347.166 514.793C344.541 513.978 342.448 511.983 341.509 509.4V509.4C340.056 505.405 341.67 500.942 345.342 498.8L346.273 498.257C349.2 496.55 351 493.416 351 490.028V490.028C351 484.766 355.266 480.5 360.528 480.5H362.5V467.582C362.5 465.56 363.011 463.571 363.985 461.799L372.75 445.863C373.248 444.958 373.627 443.993 373.877 442.991L376.851 431.098C377.232 429.571 378.604 428.5 380.178 428.5V428.5C383.085 428.5 384.674 425.109 382.812 422.875L378.756 418.007C377.937 417.025 377.432 415.82 377.305 414.548L376.888 410.385C376.652 408.021 375.05 406.017 372.796 405.265V405.265C369.808 404.269 368.09 401.14 368.854 398.084L371.732 386.572C372.235 384.558 372.208 382.449 371.653 380.449L368.802 370.187C367.967 367.181 368.336 363.968 369.829 361.229L371.257 358.612C372.699 355.968 373.094 352.878 372.364 349.956L370 340.5L377.687 325.126C378.524 323.451 378.627 321.504 377.969 319.751V319.751C376.828 316.709 378.023 313.286 380.809 311.615L380.969 311.518C383.875 309.775 385.102 306.191 383.874 303.032L381.324 296.477C379.872 292.742 380.38 288.529 382.678 285.246L383.079 284.672C384.946 282.006 385.649 278.696 385.028 275.5L383.139 265.788C382.721 263.637 382.9 261.413 383.656 259.356L393.975 231.287C394.622 229.528 396.042 228.164 397.826 227.588L400.042 226.874C404.141 225.551 404.792 220.026 401.113 217.786V217.786C399.781 216.975 398.147 216.828 396.691 217.388L386 221.5L350.778 243.175C348.34 244.675 346.519 246.998 345.643 249.723L338 273.5C326.154 321.649 314.741 342.022 288 369.5C278.326 378.464 267.068 384.148 219.175 397.181C218.407 397.39 217.646 397.677 216.927 398.019C212.002 400.362 190.024 410.407 149 423.5C118.538 433.222 98.9979 447.144 89.0182 455.739C84.245 459.849 85.9388 466.433 87.3103 472.581C89.5465 482.606 68.7496 486.677 22.2515 491.101C19.5671 491.356 17.0991 492.761 15.5318 494.955V494.955C13.9279 497.201 13.4063 500.044 14.1085 502.712L16.8859 513.266C17.6054 516.001 19.2996 518.362 21.5074 520.129C34.7919 530.756 38.3507 542.232 41.5742 562.731C41.8598 564.548 41.7101 566.411 41.1526 568.163L35.6855 585.345C35.2325 586.769 34.5175 588.096 33.5774 589.257L19.8899 606.165C18.6491 607.698 17.8052 609.513 17.4328 611.45L13.5701 631.536C13.1958 633.482 13.3093 635.49 13.9004 637.381L17.604 649.233C17.8672 650.075 18.2291 650.888 18.6551 651.661C26.1264 665.214 24.2542 673.476 9.33542 686.014C6.63903 688.28 4.90782 691.528 4.74788 695.047L4 711.5L1.07863 730.489C0.41332 734.813 2.1545 739.157 5.62257 741.825L11.4826 746.333C12.4878 747.106 13.6093 747.715 14.8053 748.137L25.5851 751.942C28.4065 752.938 31.5114 752.744 34.1875 751.406L36.6023 750.199C39.7649 748.618 43.5998 749.42 45.8634 752.136V752.136C46.6111 753.033 47.5551 753.747 48.6224 754.221L63.8287 760.979C64.6073 761.325 65.4207 761.588 66.2549 761.761L87.4746 766.182C88.4873 766.393 89.4684 766.734 90.3937 767.197L111.141 777.57C112.371 778.186 113.486 779.008 114.438 780.001L132.457 798.803C134.72 801.165 137.85 802.5 141.121 802.5H164.15C165.376 802.5 166.595 802.312 167.764 801.943L203.168 790.763C203.722 790.588 204.288 790.453 204.861 790.36L239.622 784.723C240.538 784.575 241.433 784.321 242.29 783.966L269.12 772.864C269.706 772.622 270.271 772.333 270.811 772.002L324.111 739.274Z" fill="#FF0000" fill-opacity="0.35"/>
<path d="M368.399 185.38C373.035 186.018 376.823 189.381 378.108 193.88L386 221.5L396.691 217.388C398.147 216.828 399.781 216.975 401.113 217.786V217.786C404.792 220.026 404.141 225.551 400.042 226.874L397.826 227.588C396.042 228.164 394.622 229.528 393.975 231.287L383.656 259.356C382.9 261.413 382.721 263.637 383.139 265.788L385.028 275.5C385.649 278.696 384.946 282.006 383.079 284.672L382.678 285.246C380.38 288.529 379.872 292.742 381.324 296.477L383.874 303.032C385.102 306.191 383.875 309.775 380.969 311.518L380.809 311.615C378.023 313.286 376.828 316.709 377.969 319.751V319.751C378.627 321.504 378.524 323.451 377.687 325.126L370 340.5H373.755C375.562 340.5 377.345 340.908 378.972 341.693L389.533 346.792C390.506 347.262 391.539 347.598 392.603 347.791L400.771 349.277C401.568 349.421 402.294 349.826 402.835 350.428V350.428C404.58 352.366 407.734 351.908 408.855 349.554L410.229 346.669C411.027 344.993 412.581 343.801 414.407 343.464L425.862 341.354C428.843 340.805 431.921 341.405 434.479 343.032L446.975 350.984C450.419 353.175 454.747 353.493 458.375 351.622C469.503 345.882 484.47 336.606 489.647 328.127C491.616 324.904 493.31 321.201 496.149 318.709C499.918 315.401 503.951 311.245 504.5 308.5C505.14 305.298 510.096 300.6 513.929 297.486C515.581 296.143 517.699 295.186 519.696 295.924C522.25 296.867 524.788 299.45 524.757 305.232C524.745 307.376 523.794 309.383 522.454 311.057L518.406 316.117C517.155 317.681 516.316 319.533 515.964 321.504L513.017 338.005C512.111 343.081 514.522 348.22 519.228 350.326C535.191 357.469 557.131 362.82 563.004 348.328C565.007 343.385 568.02 338.473 573.14 336.98L585.711 333.313C587.544 332.779 589.475 332.679 591.34 333.086C602.197 335.458 619.5 340.644 619.5 346.5L631.355 329.816C632.435 328.296 633.187 326.536 633.282 324.674C633.35 323.338 633.277 322.037 632.881 320.71C631.147 314.888 628.309 307.504 627.385 301.5V301.5C627.958 303.837 645.483 285.462 641.5 277C640.384 274.646 621.687 282.021 620.5 279.277C619.684 277.391 616.951 275.449 616.365 273.5C615.76 271.489 618.227 269.471 617.806 267.5C617.183 264.584 618.716 260.817 618.5 258.395C620.022 253.603 620.386 250.734 620.155 249.104C619.952 247.673 614.371 253.634 613 254.094V254.094C610.434 254.956 607.062 255.689 604 254.708C600.42 253.561 597.263 250.437 596.305 248C594.982 244.631 597.087 241.885 596.305 238.5C595.232 233.855 594.388 229.888 593 228.5C591.946 227.446 589.183 226.635 588.516 224.5C587.497 221.238 588.705 216.221 587.452 213C586.411 210.326 583.557 208.948 583 207.5C577.381 206.203 574.728 206.513 572.5 204.617C569.743 202.272 570.168 193.614 570.752 191C571.443 187.906 571.758 188.874 574 186.5L557.702 179.166C555.449 178.152 554 175.911 554 173.441V173.441C554 171.577 553.172 169.81 551.741 168.617L536.029 155.524C532.367 152.472 527.245 151.878 522.98 154.01L513.679 158.661C511.294 159.853 509.414 161.827 508.017 164.097C505.531 168.14 502.16 172.364 499.007 175.981C494.377 181.292 486.212 180.764 481.81 175.263L481.314 174.643C479.219 172.024 476.048 170.5 472.695 170.5V170.5C468.58 170.5 464.846 168.189 462.794 164.623C455.812 152.49 448.399 144.335 432.082 132.672C430.09 131.248 427.688 130.5 425.239 130.5H387.73C386.583 130.5 385.434 130.668 384.332 130.987C359.981 138.025 345.823 139.02 321 130.5L267.981 106.733C264.816 105.314 261.193 105.334 258.044 106.788L228.087 120.614C225.452 121.83 223.347 123.96 222.162 126.609L209.661 154.552C208.001 158.261 208.332 162.559 210.54 165.971L211.062 166.778C214.822 172.589 222.704 174.023 228.27 169.909L235.325 164.694C238.828 162.105 243.459 161.618 247.424 163.42L260.634 169.424C262.193 170.133 263.886 170.5 265.599 170.5H295.098C297.634 170.5 300.105 171.303 302.156 172.795L316.57 183.278C319.384 185.324 322.944 186.015 326.36 185.359C339.406 182.853 350.363 182.899 368.399 185.38Z" fill="#0000FF" fill-opacity="0.35"/>
<path d="M370 340.5L372.364 349.956C373.094 352.878 372.699 355.968 371.257 358.612L369.829 361.229C368.336 363.968 367.967 367.181 368.802 370.187L371.653 380.449C372.208 382.449 372.235 384.558 371.732 386.572L368.854 398.084C368.09 401.14 369.808 404.269 372.796 405.265V405.265C375.05 406.017 376.652 408.021 376.888 410.385L377.305 414.548C377.432 415.82 377.937 417.025 378.756 418.007L382.812 422.875C384.674 425.109 383.085 428.5 380.178 428.5V428.5C378.604 428.5 377.232 429.571 376.851 431.098L373.877 442.991C373.627 443.993 373.248 444.958 372.75 445.863L363.985 461.799C363.011 463.571 362.5 465.56 362.5 467.582V480.5H378.921C379.969 480.5 381.013 480.365 382.023 480.084C401.485 474.675 420.121 465.784 429.487 460.337C431.483 459.175 433.735 458.496 436.044 458.513C461.018 458.694 476.823 460.791 484.182 463.448C488.694 465.077 485.531 467.555 480.796 466.786C468.664 464.813 451.077 464.349 439.094 464.407C436.716 464.418 435.641 467.327 437.408 468.917V468.917C439.199 470.529 438.135 475.165 438.084 477.574C438.02 480.664 439.859 484.906 441.651 488.072C442.19 489.024 442.972 489.833 444.011 490.177C452.633 493.028 474.384 486.693 487.566 481.96C490.124 481.042 492.902 480.986 495.539 481.646C503.139 483.547 508.554 483.392 512.046 482.571C515.144 481.842 518.288 480.5 521.471 480.5H539.385C540.127 480.5 540.866 480.417 541.604 480.338C552.409 479.189 562.868 490.705 568.384 499.045C569.834 501.238 571.832 503.008 574.394 503.595C574.772 503.682 575.14 503.774 575.5 503.887C593.085 509.373 589.727 494.102 585.062 484.16C584.697 483.383 584.393 482.58 584.181 481.749L572.821 437.12C571.458 431.765 573.952 426.208 578.722 423.42C585.443 419.492 590.14 416.225 593.346 413.6C597.831 409.928 603.463 404.573 608.918 402.61L624.5 397V392.409C624.5 387.119 620.999 382.536 616.034 380.711C604.72 376.551 600.661 372.647 599.5 365.5L614.09 354.53C615.586 353.406 616.798 351.947 617.629 350.271L619.5 346.5C619.5 340.644 602.197 335.458 591.34 333.086C589.475 332.679 587.544 332.779 585.711 333.313L573.14 336.98C568.02 338.473 565.007 343.385 563.004 348.328C557.131 362.82 535.191 357.469 519.228 350.326C514.522 348.22 512.111 343.081 513.017 338.005L515.964 321.504C516.316 319.533 517.155 317.681 518.406 316.117L522.454 311.057C523.794 309.383 524.745 307.376 524.757 305.232C524.788 299.45 522.25 296.867 519.696 295.924C517.699 295.186 515.581 296.143 513.929 297.486C510.096 300.6 505.14 305.298 504.5 308.5C503.951 311.245 499.918 315.401 496.149 318.709C493.31 321.201 491.616 324.904 489.647 328.127C484.47 336.606 469.503 345.882 458.375 351.622C454.747 353.493 450.419 353.175 446.975 350.984L434.479 343.032C431.921 341.405 428.843 340.805 425.862 341.354L414.407 343.464C412.581 343.801 411.027 344.993 410.229 346.669L408.855 349.554C407.734 351.908 404.58 352.366 402.835 350.428V350.428C402.294 349.826 401.568 349.421 400.771 349.277L392.603 347.791C391.539 347.598 390.506 347.262 389.533 346.792L378.972 341.693C377.345 340.908 375.562 340.5 373.755 340.5H370Z" fill="#FFFF00" fill-opacity="0.35"/>
<path d="M362.5 480.5H360.528C355.266 480.5 351 484.766 351 490.028V490.028C351 493.416 349.2 496.55 346.273 498.257L345.342 498.8C341.67 500.942 340.056 505.405 341.509 509.4V509.4C342.448 511.983 344.541 513.978 347.166 514.793L372 522.5L379.78 525.834C381.567 526.6 383.14 527.788 384.366 529.297L389 535C411.333 530.333 470.8 523.8 530 535L575.5 503.887C575.14 503.774 574.772 503.682 574.394 503.595C571.832 503.008 569.834 501.238 568.384 499.045C562.868 490.705 552.409 479.189 541.604 480.338C540.866 480.417 540.127 480.5 539.385 480.5H521.471C518.288 480.5 515.144 481.842 512.046 482.571C508.554 483.392 503.139 483.547 495.539 481.646C492.902 480.986 490.124 481.042 487.566 481.96C474.384 486.693 452.633 493.028 444.011 490.177C442.972 489.833 442.19 489.024 441.651 488.072C439.859 484.906 438.02 480.664 438.084 477.574C438.135 475.165 439.199 470.529 437.408 468.917V468.917C435.641 467.327 436.716 464.418 439.094 464.407C451.077 464.349 468.664 464.813 480.796 466.786C485.531 467.555 488.694 465.077 484.182 463.448C476.823 460.791 461.018 458.694 436.044 458.513C433.735 458.496 431.483 459.175 429.487 460.337C420.121 465.784 401.485 474.675 382.023 480.084C381.013 480.365 379.969 480.5 378.921 480.5H362.5Z" fill="#EEEEEE" fill-opacity="0.35"/>
<path d="M784.029 407.775C787.613 405.032 792.462 403.563 794.784 399.694L797 396L754.191 396.931C752.1 396.976 749.999 396.445 748.143 395.481C693.362 367.039 674.916 397 670 397V397C662.899 397 654.438 396.026 651.208 389.702C650.218 387.765 649.077 387.084 647.975 387.143C645.665 387.267 645.369 390.376 644.609 392.561C642.304 399.19 631.154 398.447 624.5 397L608.918 402.61C603.463 404.573 597.831 409.928 593.346 413.6C590.14 416.225 585.443 419.492 578.722 423.42C573.952 426.208 571.458 431.765 572.821 437.12L584.181 481.749C584.393 482.58 584.697 483.383 585.062 484.16C589.727 494.102 593.085 509.373 575.5 503.887L530 535C470.8 523.8 411.333 530.333 389 535L391.778 539.167C392.543 540.314 392.694 541.765 392.182 543.046L391.27 545.325C390.346 547.634 392.483 549.995 394.873 549.306V549.306C395.286 549.187 395.669 548.98 395.995 548.699L397.198 547.663C398.907 546.191 401.315 545.842 403.372 546.767V546.767C404.433 547.245 405.326 548.03 405.936 549.02L409 554L428.109 582.663C428.7 583.55 429.171 584.513 429.508 585.525L440.221 617.663C440.735 619.205 441.557 620.626 442.636 621.841L455.165 635.936C456.373 637.294 457.256 638.909 457.748 640.659L465.421 667.942C465.804 669.303 466.424 670.586 467.254 671.731L483.95 694.788C485.896 697.475 486.642 700.848 486.012 704.106L484.49 711.967C484.167 713.637 483.493 715.218 482.512 716.607L479.685 720.612C478.578 722.181 477.11 723.461 475.406 724.345L453.913 735.49C452.006 736.478 449.869 736.937 447.724 736.818L417.285 735.127C415.775 735.043 414.295 734.675 412.922 734.041L395.261 725.89C391.384 724.1 386.849 724.506 383.351 726.954L379 730L400.774 745.912C403.469 747.881 405.222 750.884 405.612 754.198L408.734 780.737C408.91 782.232 409.366 783.681 410.078 785.008L430.047 822.224C430.678 823.4 431.501 824.462 432.481 825.367L447.414 839.151C452.574 843.914 460.579 841.681 467.571 841.032C472.018 840.62 477.358 842.613 484.799 846.75C486.253 847.559 487.857 848.098 489.512 848.27C515.201 850.945 527.152 849.381 536.747 839.517C538.286 837.934 539.184 835.844 539.441 833.651C540.36 825.824 540.119 820.458 539.136 812.136C539.047 811.381 538.883 810.636 538.651 809.913L531.998 789.217C530.752 785.341 531.557 781.097 534.135 777.946L537.6 773.712C538.525 772.58 539.647 771.618 540.932 770.92C548.661 766.722 553.518 765.652 560.256 765.858C562.062 765.913 563.872 765.651 565.55 764.98L590.854 754.858C592.272 754.291 593.784 754 595.311 754H616.598C617.529 754 618.46 753.889 619.368 753.681C632.08 750.765 636.36 751.208 643.6 751.958L644 752C645.001 745.475 646.039 741.91 652.325 739.56C653.42 739.151 654.594 739 655.763 739H670L685.504 737.591C689.555 737.222 693.073 734.785 695.179 731.305C697.685 727.163 699.765 724.746 701.979 723.62C704.912 722.128 708.034 724.55 709.859 727.288L710.309 727.964C713.122 732.183 718.284 734.179 723.204 732.949L751 726L782 717L821.537 709.093C825.002 708.4 827.978 706.21 829.711 703.132C833.556 696.303 836.782 690.931 841.238 683.891C843.547 680.242 847.673 678.076 851.968 678.523C852.396 678.567 852.812 678.614 853.218 678.662C860.872 679.584 870.646 677.619 874.471 670.926L874.564 670.763C874.854 670.255 875.107 669.727 875.32 669.182L882.829 649.993C883.596 648.032 883.834 645.904 883.519 643.822L879.795 619.245C879.288 615.904 877.398 612.932 874.586 611.058L870.023 608.015C868.052 606.701 865.736 606 863.367 606H860.587C858.908 606 857.274 605.455 855.93 604.448L854.269 603.202C848.921 599.19 855.596 588.723 860.028 593.728V593.728C861.944 595.892 862.835 596.489 865.628 597.234L873.005 599.201C874.969 599.725 877.035 599.741 879.007 599.248L881.033 598.742C887.193 597.202 891.087 591.13 889.917 584.889L887.467 571.824C886.578 567.082 882.936 563.334 878.222 562.309L868.118 560.113C864.855 559.403 862.035 557.366 860.336 554.491L850.887 538.502C850.299 537.506 849.857 536.43 849.577 535.308L845.545 519.18C845.185 517.739 844.555 516.38 843.711 515.158C839.764 509.442 837.298 505.011 836.93 499.133C836.561 493.253 833.99 487.36 828.537 485.129L817.262 480.516C816.423 480.173 815.626 479.736 814.886 479.213L799 468L781.849 454.66C781.284 454.221 780.754 453.729 780.282 453.191C772.804 444.671 770.802 439.306 775.477 433.289C778.344 429.6 780.105 425.097 779.891 420.43C779.637 414.883 780.846 410.211 784.029 407.775Z" fill="#008000" fill-opacity="0.35"/>
<path d="M694.788 273.565C692.968 273.302 691.11 273.151 689.433 272.398C686.521 271.093 681.814 268.803 679 266.5C678.219 263.181 679 256.002 679 256.002C676.812 252.282 656.683 261.869 645.892 272.5C642.069 277.401 636.738 299.715 627.385 301.5V301.5C628.309 307.504 631.147 314.888 632.881 320.71C633.277 322.037 633.35 323.338 633.282 324.674C633.187 326.536 632.435 328.296 631.355 329.816L619.5 346.5C619.5 352.9 606.167 361.833 599.5 365.5C600.661 372.647 604.72 376.551 616.034 380.711C620.999 382.536 624.5 387.119 624.5 392.409V397C631.154 398.447 642.304 399.19 644.609 392.561C645.369 390.376 645.665 387.267 647.975 387.143C649.077 387.084 650.218 387.765 651.208 389.702C654.438 396.026 662.899 397 670 397V397C674.916 397 693.362 367.039 748.143 395.481C749.999 396.445 752.1 396.976 754.191 396.931L797 396L799.216 389.796C799.403 389.272 799.702 388.794 800.093 388.397L801.686 386.777C802.395 386.057 803.566 386.093 804.228 386.855V386.855C805.164 387.933 806.929 387.479 807.229 386.084L807.809 383.385C807.928 382.836 808.325 382.388 808.856 382.204V382.204C810.325 381.697 810.29 379.608 808.806 379.149L806.083 378.308C805.543 378.141 805.074 377.798 804.751 377.335L801.128 372.144C800.183 370.791 800.937 368.913 802.556 368.589V368.589C802.849 368.53 803.128 368.415 803.377 368.249L804.749 367.334C805.564 366.791 806.195 366.013 806.558 365.104L807.192 363.519C807.664 362.339 808.892 361.645 810.146 361.85V361.85C812.049 362.16 813.029 364.301 812.021 365.944L811.33 367.07C811.155 367.355 811.021 367.663 810.931 367.985L810.01 371.29C809.724 372.317 810.108 373.415 810.973 374.038V374.038C812.099 374.85 813.667 374.611 814.499 373.501L815.077 372.731C815.666 371.946 816.554 371.442 817.53 371.339L822.998 370.763C824.514 370.604 825.785 369.55 826.223 368.09L826.351 367.664C826.739 366.37 826.261 364.972 825.162 364.187V364.187C824.15 363.465 823.657 362.216 823.9 360.998L824.704 356.979C824.9 355.999 825.25 355.056 825.739 354.186L830.111 346.414C830.663 345.432 830.663 344.234 830.111 343.253V343.253C829.056 341.378 830.099 339.016 832.196 338.532L848.984 334.658C852.177 333.921 854.908 331.865 856.5 329V329L856.546 328.912C857.745 326.607 861.125 326.874 861.946 329.339L862.001 329.503C862.238 330.215 862.775 330.787 863.471 331.069V331.069C865.158 331.753 867 330.512 867 328.692V325.728C867 323.794 868.22 322.069 870.044 321.426L872.182 320.671C874.034 320.018 875.035 318.013 874.45 316.139V316.139C873.725 313.821 875.427 311.452 877.855 311.404L878.85 311.385C880.085 311.36 881.152 312.245 881.356 313.463L881.482 314.213C881.724 315.653 883.376 316.359 884.584 315.539V315.539C885.748 314.748 887.343 315.372 887.661 316.742L888.223 319.156C888.661 321.043 890.479 322.272 892.393 321.978L892.866 321.905C894.475 321.658 895.798 320.507 896.266 318.947L896.299 318.838C896.735 317.384 897.89 316.257 899.355 315.858L900.962 315.419C901.97 315.145 902.888 314.612 903.627 313.873L904.834 312.666C905.702 311.798 906.005 310.515 905.617 309.35V309.35C905.237 308.212 904.26 307.377 903.076 307.179L899.98 306.663C899.358 306.56 898.813 306.189 898.489 305.648V305.648C897.926 304.709 898.157 303.497 899.027 302.832L900.295 301.862C901.218 301.157 901.782 300.081 901.837 298.921L901.891 297.793C901.96 296.335 902.653 294.978 903.792 294.066L905.147 292.982C906.228 292.118 906.558 290.616 905.939 289.378V289.378C905.01 287.52 902.499 287.188 901.12 288.74L900.873 289.018C900.314 289.647 899.529 290.029 898.689 290.082L892 290.5L890.476 290.468C887.722 290.411 885.223 288.838 883.981 286.379L883.321 285.072C883.111 284.658 883.025 284.192 883.071 283.73V283.73C883.26 281.85 881.331 280.48 879.619 281.279L878.555 281.775C877.587 282.226 876.92 283.143 876.787 284.202L876.664 285.189C876.335 287.817 873.545 289.367 871.14 288.257V288.257C870.099 287.777 868.901 287.777 867.86 288.257L864.613 289.755C863.55 290.246 862.394 290.5 861.223 290.5H852.757C851.4 290.5 850.443 289.171 850.872 287.885V287.885C851.219 286.844 850.656 285.719 849.615 285.372L848.949 285.15C847.798 284.766 846.533 285.2 845.861 286.209L845.215 287.177C843.38 289.929 839.234 289.589 837.872 286.574L835.129 280.5L834.667 279.688C832.975 276.715 830.061 274.636 826.699 274.006L826.374 273.945C824.813 273.652 823.205 273.727 821.677 274.164L820.2 274.586C818.175 275.164 816.519 276.623 815.689 278.559L815.641 278.671C814.634 281.021 812.394 282.607 809.843 282.777L804.139 283.157C801.764 283.316 800.374 285.905 801.555 287.972V287.972C802.376 289.407 801.976 291.231 800.63 292.193L796.872 294.877C796.293 295.291 795.769 295.777 795.314 296.323L791 301.5C791 301.5 784.459 300.784 782.5 303.492C781.59 304.75 785.476 308.631 785.524 310.5C785.591 313.072 781.966 313.622 781 314.5C780.191 315.236 779.05 315.559 777.827 315.644C773.531 315.941 769.376 317.097 765.26 318.366C764.272 318.67 763.23 318.731 762 318.5C759.457 318.209 757.568 317.356 755.311 314.743C752.28 311.234 747.924 309.397 743.461 308.14C741.531 307.596 739.79 306.616 737.866 305.091C736.598 304.086 735.651 302.743 734.973 301.274L733.218 297.471C731.256 293.221 727.003 290.5 722.322 290.5H719.974C718.021 290.5 716.374 289.725 715.566 287.946C714.053 284.615 711.703 278.931 710 276.5C708.138 273.841 704.263 276.286 701 276.004C698.414 274.604 696.658 273.835 694.788 273.565Z" fill="#00FFFF" fill-opacity="0.35"/>
<path d="M605.325 169.45C604.446 170.146 603.474 170.717 602.437 171.144L588.197 177.007C587.401 177.335 586.643 177.747 585.936 178.237L574 186.5C571.758 188.874 571.443 187.906 570.752 191C570.168 193.614 569.743 202.272 572.5 204.617C574.728 206.513 577.381 206.203 583 207.5C583.557 208.948 586.411 210.326 587.452 213C588.705 216.221 587.497 221.238 588.516 224.5C589.183 226.635 591.946 227.446 593 228.5C594.388 229.888 595.232 233.855 596.305 238.5C597.087 241.885 594.982 244.631 596.305 248C597.263 250.437 600.42 253.561 604 254.708C607.062 255.689 610.434 254.956 613 254.094V254.094C614.371 253.634 619.952 247.673 620.155 249.104C620.386 250.734 620.022 253.603 618.5 258.395C618.716 260.817 617.183 264.584 617.806 267.5C618.227 269.471 615.76 271.489 616.365 273.5C616.951 275.449 619.684 277.391 620.5 279.277C621.687 282.021 640.384 274.646 641.5 277C645.483 285.462 627.958 303.837 627.385 301.5C636.738 299.715 642.069 277.401 645.892 272.5C656.683 261.869 676.812 252.282 679 256.002C679 256.002 677 249.601 677 245.5C677.554 243.655 679.147 241.321 680.673 239.372C682.686 236.803 683.923 233.658 683.787 230.398L683.5 223.5C683.808 219.035 685.439 217.125 690.617 215.953C692.178 215.599 693.699 215.063 695.056 214.215L695.745 213.784C699.042 211.724 703.132 211.388 706.72 212.883L707.93 213.388C711.15 214.729 714.793 214.603 717.912 213.044L720.466 211.767C722.133 210.934 723.97 210.5 725.833 210.5H730C733.777 210.5 737.334 208.722 739.6 205.7L744.351 199.366C744.783 198.79 745.162 198.176 745.484 197.532L748.995 190.51C750.235 188.03 750.051 185.076 748.513 182.77V182.77C746.47 179.706 746.874 175.626 749.478 173.022L754.768 167.732C756.231 166.269 758.048 165.209 760.041 164.655L772.454 161.207C774.131 160.741 775.687 159.916 777.014 158.788L783.704 153.102C784.564 152.371 785.522 151.765 786.551 151.302L788.821 150.281C792.581 148.588 795 144.848 795 140.724V140.724C795 139.258 795.308 137.808 795.903 136.468L800.657 125.772C802.117 122.486 805.148 120.169 808.702 119.623L809.181 119.549C809.393 119.516 809.608 119.5 809.823 119.5V119.5C812.793 119.5 814.833 116.513 813.752 113.746L812.904 111.574C812.395 110.273 813.056 108.808 814.367 108.328V108.328C814.592 108.245 814.804 108.131 814.996 107.988L815.796 107.394C816.589 106.805 817.247 106.052 817.725 105.187V105.187C817.908 104.855 818.118 104.539 818.353 104.241L820.01 102.147C821.215 100.623 823.218 99.9737 825.088 100.502V100.502C825.69 100.672 826.253 100.958 826.746 101.343L829.237 103.294C829.412 103.431 829.604 103.542 829.81 103.624V103.624C831.016 104.106 832.383 103.512 832.853 102.301L834.853 97.1475C835.036 96.6751 835.154 96.1798 835.203 95.6754L835.451 93.1346C835.714 90.4357 838.619 88.8559 841.028 90.1025V90.1025C841.533 90.3642 841.974 90.7353 842.319 91.1888L843.672 92.9711C844.871 94.5516 845.205 96.6262 844.56 98.503V98.503C843.738 100.897 844.52 103.548 846.509 105.113L847 105.5L854.127 110.016C855.335 110.782 856.225 111.958 856.634 113.329L857.058 114.75C857.608 116.593 859.368 117.803 861.285 117.657V117.657C862.078 117.597 862.836 117.307 863.466 116.823L872.139 110.161C872.712 109.721 873.244 109.231 873.728 108.695L909.204 69.4854C910.387 68.1779 911.252 66.616 911.834 64.9516C916.57 51.4136 924.337 43.366 931.198 31.6365C933.062 28.4497 933.15 24.5082 931.32 21.3016C925.366 10.8685 918.314 5.7985 905.461 1.57713C903.218 0.840299 900.796 0.870411 898.539 1.56484L878.048 7.8699C876.693 8.28667 875.423 8.94008 874.297 9.79984L838 37.5L808 67.5L791.76 88.5164C791.255 89.1704 790.818 89.8748 790.458 90.6185L778.28 115.735C776.274 119.873 772.08 122.5 767.482 122.5H766.081C763.435 122.5 760.863 123.375 758.765 124.989L740.961 138.684C737.853 141.075 733.771 141.796 730.031 140.615L717 136.5C709.824 135.128 700.047 135.771 693.406 136.5C688.855 136.999 685.181 140.283 683.89 144.675L683.1 147.362C681.813 151.734 678.161 155.001 673.673 155.793L667.987 156.796C665.4 157.253 662.195 157.041 661.397 154.539C660.124 150.547 663.486 144.479 666.373 140.271C668.51 137.157 669.687 133.27 668.425 129.711C666.07 123.073 662.246 120.122 653.21 121.013C648.22 121.505 644.709 125.831 643.758 130.754C641.767 141.059 638.907 144.305 634.093 146.929C633.374 147.321 632.677 147.756 632.035 148.265L605.325 169.45Z" fill="#FFC0CB" fill-opacity="0.35"/>
<path d="M386 221.5L350.778 243.175C348.34 244.675 346.519 246.998 345.643 249.723L338 273.5C326.154 321.649 314.741 342.022 288 369.5C278.326 378.464 267.068 384.148 219.175 397.181C218.407 397.39 217.646 397.677 216.927 398.019C212.002 400.362 190.024 410.407 149 423.5C118.538 433.222 98.9979 447.144 89.0182 455.739C84.245 459.849 85.9388 466.433 87.3103 472.581C89.5465 482.606 68.7496 486.677 22.2515 491.101C19.5671 491.356 17.0991 492.761 15.5318 494.955V494.955C13.9279 497.201 13.4063 500.044 14.1085 502.712L16.8859 513.266C17.6054 516.001 19.2996 518.362 21.5074 520.129C34.7919 530.756 38.3507 542.232 41.5742 562.731C41.8598 564.548 41.7101 566.411 41.1526 568.163L35.6855 585.345C35.2325 586.769 34.5175 588.096 33.5774 589.257L19.8899 606.165C18.6491 607.698 17.8052 609.513 17.4328 611.45L13.5701 631.536C13.1958 633.482 13.3093 635.49 13.9004 637.381L17.604 649.233C17.8672 650.075 18.2291 650.888 18.6551 651.661C26.1264 665.214 24.2542 673.476 9.33542 686.014C6.63903 688.28 4.90782 691.528 4.74788 695.047L4 711.5L1.07863 730.489C0.41332 734.813 2.1545 739.157 5.62257 741.825L11.4826 746.333C12.4878 747.106 13.6093 747.715 14.8053 748.137L25.5851 751.942C28.4065 752.938 31.5114 752.744 34.1875 751.406L36.6023 750.199C39.7649 748.618 43.5998 749.42 45.8634 752.136V752.136C46.6111 753.033 47.5551 753.747 48.6224 754.221L63.8287 760.979C64.6073 761.325 65.4207 761.588 66.2549 761.761L87.4746 766.182C88.4873 766.393 89.4684 766.734 90.3937 767.197L111.141 777.57C112.371 778.186 113.486 779.008 114.438 780.001L132.457 798.803C134.72 801.165 137.85 802.5 141.121 802.5H164.15C165.376 802.5 166.595 802.312 167.764 801.943L203.168 790.763C203.722 790.588 204.288 790.453 204.861 790.36L239.622 784.723C240.538 784.575 241.433 784.321 242.29 783.966L269.12 772.864C269.706 772.622 270.271 772.333 270.811 772.002L324.111 739.274C326 738.114 328.173 737.5 330.39 737.5H366.255C369.303 737.5 372.238 736.34 374.462 734.254L379 730M386 221.5L378.108 193.88C376.823 189.381 373.035 186.018 368.399 185.38C350.363 182.899 339.406 182.853 326.36 185.359C322.944 186.015 319.384 185.324 316.57 183.278L302.156 172.795C300.105 171.303 297.634 170.5 295.098 170.5H265.599C263.886 170.5 262.193 170.133 260.634 169.424L247.424 163.42C243.459 161.618 238.828 162.105 235.325 164.694L228.27 169.909C222.704 174.023 214.822 172.589 211.062 166.778L210.54 165.971C208.332 162.559 208.001 158.261 209.661 154.552L222.162 126.609C223.347 123.96 225.452 121.83 228.087 120.614L258.044 106.788C261.193 105.334 264.816 105.314 267.981 106.733L321 130.5C345.823 139.02 359.981 138.025 384.332 130.987C385.434 130.668 386.583 130.5 387.73 130.5H425.239C427.688 130.5 430.09 131.248 432.082 132.672C448.399 144.335 455.812 152.49 462.794 164.623C464.846 168.189 468.58 170.5 472.695 170.5V170.5C476.048 170.5 479.219 172.024 481.314 174.643L481.81 175.263C486.212 180.764 494.377 181.292 499.007 175.981C502.16 172.364 505.531 168.14 508.017 164.097C509.414 161.827 511.294 159.853 513.679 158.661L522.98 154.01C527.245 151.878 532.367 152.472 536.029 155.524L551.741 168.617C553.172 169.81 554 171.577 554 173.441V173.441C554 175.911 555.449 178.152 557.702 179.166L574 186.5M386 221.5L396.691 217.388C398.147 216.828 399.781 216.975 401.113 217.786V217.786C404.792 220.026 404.141 225.551 400.042 226.874L397.826 227.588C396.042 228.164 394.622 229.528 393.975 231.287L383.656 259.356C382.9 261.413 382.721 263.637 383.139 265.788L385.028 275.5C385.649 278.696 384.946 282.006 383.079 284.672L382.678 285.246C380.38 288.529 379.872 292.742 381.324 296.477L383.874 303.032C385.102 306.191 383.875 309.775 380.969 311.518L380.809 311.615C378.023 313.286 376.828 316.709 377.969 319.751V319.751C378.627 321.504 378.524 323.451 377.687 325.126L370 340.5M574 186.5L585.936 178.237C586.643 177.747 587.401 177.335 588.197 177.007L602.437 171.144C603.474 170.717 604.446 170.146 605.325 169.45L632.035 148.265C632.677 147.756 633.374 147.321 634.093 146.929C638.907 144.305 641.767 141.059 643.758 130.754C644.709 125.831 648.22 121.505 653.21 121.013C662.246 120.122 666.07 123.073 668.425 129.711C669.687 133.27 668.51 137.157 666.373 140.271C663.486 144.479 660.124 150.547 661.397 154.539C662.195 157.041 665.4 157.253 667.987 156.796L673.673 155.793C678.161 155.001 681.813 151.734 683.1 147.362L683.89 144.675C685.181 140.283 688.855 136.999 693.406 136.5C700.047 135.771 709.824 135.128 717 136.5L730.031 140.615C733.771 141.796 737.853 141.075 740.961 138.684L758.765 124.989C760.863 123.375 763.435 122.5 766.081 122.5H767.482C772.08 122.5 776.274 119.873 778.28 115.735L790.458 90.6185C790.818 89.8748 791.255 89.1704 791.76 88.5164L808 67.5L838 37.5L874.297 9.79984C875.423 8.94008 876.693 8.28667 878.048 7.8699L898.539 1.56484C900.796 0.870411 903.218 0.840299 905.461 1.57713C918.314 5.7985 925.366 10.8685 931.32 21.3016C933.15 24.5082 933.062 28.4497 931.198 31.6365C924.337 43.366 916.57 51.4136 911.834 64.9516C911.252 66.616 910.387 68.1779 909.204 69.4854L873.728 108.695C873.244 109.231 872.712 109.721 872.139 110.161L863.466 116.823C862.836 117.307 862.078 117.597 861.285 117.657V117.657C859.368 117.803 857.608 116.593 857.058 114.75L856.634 113.329C856.225 111.958 855.335 110.782 854.127 110.016L847 105.5L846.509 105.113C844.52 103.548 843.738 100.897 844.56 98.503V98.503C845.205 96.6262 844.871 94.5516 843.672 92.9711L842.319 91.1888C841.974 90.7353 841.533 90.3642 841.028 90.1025V90.1025C838.619 88.8559 835.714 90.4357 835.451 93.1346L835.203 95.6754C835.154 96.1798 835.036 96.6751 834.853 97.1475L832.853 102.301C832.383 103.512 831.016 104.106 829.81 103.624V103.624C829.604 103.542 829.412 103.431 829.237 103.294L826.746 101.343C826.253 100.958 825.69 100.672 825.088 100.502V100.502C823.218 99.9737 821.215 100.623 820.01 102.147L818.353 104.241C818.118 104.539 817.908 104.855 817.725 105.187V105.187C817.247 106.052 816.589 106.805 815.796 107.394L814.996 107.988C814.804 108.131 814.592 108.245 814.367 108.328V108.328C813.056 108.808 812.395 110.273 812.904 111.574L813.752 113.746C814.833 116.513 812.793 119.5 809.823 119.5V119.5C809.608 119.5 809.393 119.516 809.181 119.549L808.702 119.623C805.148 120.169 802.117 122.486 800.657 125.772L795.903 136.468C795.308 137.808 795 139.258 795 140.724V140.724C795 144.848 792.581 148.588 788.821 150.281L786.551 151.302C785.522 151.765 784.564 152.371 783.704 153.102L777.014 158.788C775.687 159.916 774.131 160.741 772.454 161.207L760.041 164.655C758.048 165.209 756.231 166.269 754.768 167.732L749.478 173.022C746.874 175.626 746.47 179.706 748.513 182.77V182.77C750.051 185.076 750.235 188.03 748.995 190.51L745.484 197.532C745.162 198.176 744.783 198.79 744.351 199.366L739.6 205.7C737.334 208.722 733.777 210.5 730 210.5H725.833C723.97 210.5 722.133 210.934 720.466 211.767L717.912 213.044C714.793 214.603 711.15 214.729 707.93 213.388L706.72 212.883C703.132 211.388 699.042 211.724 695.745 213.784L695.056 214.215C693.699 215.063 692.178 215.599 690.617 215.953C685.439 217.125 683.808 219.035 683.5 223.5L683.787 230.398C683.923 233.658 682.686 236.803 680.673 239.372C679.147 241.321 677.554 243.655 677 245.5M574 186.5C571.758 188.874 571.443 187.906 570.752 191M574 186.5L570.752 191M677 245.5C677.03 252.181 679 256.002 679 256.002M677 245.5C677 249.601 679 256.002 679 256.002M679 266.5C681.814 268.803 686.521 271.093 689.433 272.398C691.11 273.151 692.968 273.302 694.788 273.565C696.658 273.835 698.414 274.604 701 276.004M679 266.5C679 263.477 679 258.906 679 256.002M679 266.5C678.219 263.181 679 256.002 679 256.002M710 276.5C711.703 278.931 714.053 284.615 715.566 287.946C716.374 289.725 718.021 290.5 719.974 290.5H722.322C727.003 290.5 731.256 293.221 733.218 297.471L734.973 301.274C735.651 302.743 736.598 304.086 737.866 305.091C739.79 306.616 741.531 307.596 743.461 308.14C747.924 309.397 752.28 311.234 755.311 314.743C757.568 317.356 759.457 318.209 762 318.5C763.23 318.731 764.272 318.67 765.26 318.366C769.376 317.097 773.531 315.941 777.827 315.644C779.05 315.559 780.191 315.236 781 314.5C781.966 313.622 785.591 313.072 785.524 310.5M710 276.5C708.138 273.841 704.263 276.286 701 276.004M710 276.5L701 276.004M791 301.5L795.314 296.323C795.769 295.777 796.293 295.291 796.872 294.877L800.63 292.193C801.976 291.231 802.376 289.407 801.555 287.972V287.972C800.374 285.905 801.764 283.316 804.139 283.157L809.843 282.777C812.394 282.607 814.634 281.021 815.641 278.671L815.689 278.559C816.519 276.623 818.175 275.164 820.2 274.586L821.677 274.164C823.205 273.727 824.813 273.652 826.374 273.945L826.699 274.006C830.061 274.636 832.975 276.715 834.667 279.688L835.129 280.5L837.872 286.574C839.234 289.589 843.38 289.929 845.215 287.177L845.861 286.209C846.533 285.2 847.798 284.766 848.949 285.15L849.615 285.372C850.656 285.719 851.219 286.844 850.872 287.885V287.885C850.443 289.171 851.4 290.5 852.757 290.5H861.223C862.394 290.5 863.55 290.246 864.613 289.755L867.86 288.257C868.901 287.777 870.099 287.777 871.14 288.257V288.257C873.545 289.367 876.335 287.817 876.664 285.189L876.787 284.202C876.92 283.143 877.587 282.226 878.555 281.775L879.619 281.279C881.331 280.48 883.26 281.85 883.071 283.73V283.73C883.025 284.192 883.111 284.658 883.321 285.072L883.981 286.379C885.223 288.838 887.722 290.411 890.476 290.468L892 290.5L898.689 290.082C899.529 290.029 900.314 289.647 900.873 289.018L901.12 288.74C902.499 287.188 905.01 287.52 905.939 289.378V289.378C906.558 290.616 906.228 292.118 905.147 292.982L903.792 294.066C902.653 294.978 901.96 296.335 901.891 297.793L901.837 298.921C901.782 300.081 901.218 301.157 900.295 301.862L899.027 302.832C898.157 303.497 897.926 304.709 898.489 305.648V305.648C898.813 306.189 899.358 306.56 899.98 306.663L903.076 307.179C904.26 307.377 905.237 308.212 905.617 309.35V309.35C906.005 310.515 905.702 311.798 904.834 312.666L903.627 313.873C902.888 314.612 901.97 315.145 900.962 315.419L899.355 315.858C897.89 316.257 896.735 317.384 896.299 318.838L896.266 318.947C895.798 320.507 894.475 321.658 892.866 321.905L892.393 321.978C890.479 322.272 888.661 321.043 888.223 319.156L887.661 316.742C887.343 315.372 885.748 314.748 884.584 315.539V315.539C883.376 316.359 881.724 315.653 881.482 314.213L881.356 313.463C881.152 312.245 880.085 311.36 878.85 311.385L877.855 311.404C875.427 311.452 873.725 313.821 874.45 316.139V316.139C875.035 318.013 874.034 320.018 872.182 320.671L870.044 321.426C868.22 322.069 867 323.794 867 325.728V328.692C867 330.512 865.158 331.753 863.471 331.069V331.069C862.775 330.787 862.238 330.215 862.001 329.503L861.946 329.339C861.125 326.874 857.745 326.607 856.546 328.912L856.5 329V329C854.908 331.865 852.177 333.921 848.984 334.658L832.196 338.532C830.099 339.016 829.056 341.378 830.111 343.253V343.253C830.663 344.234 830.663 345.432 830.111 346.414L825.739 354.186C825.25 355.056 824.9 355.999 824.704 356.979L823.9 360.998C823.657 362.216 824.15 363.465 825.162 364.187V364.187C826.261 364.972 826.739 366.37 826.351 367.664L826.223 368.09C825.785 369.55 824.514 370.604 822.998 370.763L817.53 371.339C816.554 371.442 815.666 371.946 815.077 372.731L814.499 373.501C813.667 374.611 812.099 374.85 810.973 374.038V374.038C810.108 373.415 809.724 372.317 810.01 371.29L810.931 367.985C811.021 367.663 811.155 367.355 811.33 367.07L812.021 365.944C813.029 364.301 812.049 362.16 810.146 361.85V361.85C808.892 361.645 807.664 362.339 807.192 363.519L806.558 365.104C806.195 366.013 805.564 366.791 804.749 367.334L803.377 368.249C803.128 368.415 802.849 368.53 802.556 368.589V368.589C800.937 368.913 800.183 370.791 801.128 372.144L804.751 377.335C805.074 377.798 805.543 378.141 806.083 378.308L808.806 379.149C810.29 379.608 810.325 381.697 808.856 382.204V382.204C808.325 382.388 807.928 382.836 807.809 383.385L807.229 386.084C806.929 387.479 805.164 387.933 804.228 386.855V386.855C803.566 386.093 802.395 386.057 801.686 386.777L800.093 388.397C799.702 388.794 799.403 389.272 799.216 389.796L797 396M791 301.5C791 301.5 784.459 300.784 782.5 303.492M791 301.5L782.5 303.492M797 396L794.784 399.694C792.462 403.563 787.613 405.032 784.029 407.775C780.846 410.211 779.637 414.883 779.891 420.43C780.105 425.097 778.344 429.6 775.477 433.289C770.802 439.306 772.804 444.671 780.282 453.191C780.754 453.729 781.284 454.221 781.849 454.66L799 468L814.886 479.213C815.626 479.736 816.423 480.173 817.262 480.516L828.537 485.129C833.99 487.36 836.561 493.253 836.93 499.133C837.298 505.011 839.764 509.442 843.711 515.158C844.555 516.38 845.185 517.739 845.545 519.18L849.577 535.308C849.857 536.43 850.299 537.506 850.887 538.502L860.336 554.491C862.035 557.366 864.855 559.403 868.118 560.113L878.222 562.309C882.936 563.334 886.578 567.082 887.467 571.824L889.917 584.889C891.087 591.13 887.193 597.202 881.033 598.742L879.007 599.248C877.035 599.741 874.969 599.725 873.005 599.201L865.628 597.234C862.835 596.489 861.944 595.892 860.028 593.728V593.728C855.596 588.723 848.921 599.19 854.269 603.202L855.93 604.448C857.274 605.455 858.908 606 860.587 606H863.367C865.736 606 868.052 606.701 870.023 608.015L874.586 611.058C877.398 612.932 879.288 615.904 879.795 619.245L883.519 643.822C883.834 645.904 883.596 648.032 882.829 649.993L875.32 669.182C875.107 669.727 874.854 670.255 874.564 670.763L874.471 670.926C870.646 677.619 860.872 679.584 853.218 678.662C852.812 678.614 852.396 678.567 851.968 678.523C847.673 678.076 843.547 680.242 841.238 683.891C836.782 690.931 833.556 696.303 829.711 703.132C827.978 706.21 825.002 708.4 821.537 709.093L782 717L751 726L723.204 732.949C718.284 734.179 713.122 732.183 710.309 727.964L709.859 727.288C708.034 724.55 704.912 722.128 701.979 723.62C699.765 724.746 697.685 727.163 695.179 731.305C693.073 734.785 689.555 737.222 685.504 737.591L670 739H655.763C654.594 739 653.42 739.151 652.325 739.56C646.039 741.91 645.001 745.475 644 752M797 396L754.191 396.931C752.1 396.976 749.999 396.445 748.143 395.481C693.362 367.039 674.916 397 670 397V397C662.899 397 654.438 396.026 651.208 389.702C650.218 387.765 649.077 387.084 647.975 387.143C645.665 387.267 645.369 390.376 644.609 392.561C642.304 399.19 631.154 398.447 624.5 397M644 752L643.6 751.958M644 752C643.866 751.986 643.732 751.972 643.6 751.958M379 730L400.774 745.912C403.469 747.881 405.222 750.884 405.612 754.198L408.734 780.737C408.91 782.232 409.366 783.681 410.078 785.008L430.047 822.224C430.678 823.4 431.501 824.462 432.481 825.367L447.414 839.151C452.574 843.914 460.579 841.681 467.571 841.032C472.018 840.62 477.358 842.613 484.799 846.75C486.253 847.559 487.857 848.098 489.512 848.27C515.201 850.945 527.152 849.381 536.747 839.517C538.286 837.934 539.184 835.844 539.441 833.651C540.36 825.824 540.119 820.458 539.136 812.136C539.047 811.381 538.883 810.636 538.651 809.913L531.998 789.217C530.752 785.341 531.557 781.097 534.135 777.946L537.6 773.712C538.525 772.58 539.647 771.618 540.932 770.92C548.661 766.722 553.518 765.652 560.256 765.858C562.062 765.913 563.872 765.651 565.55 764.98L590.854 754.858C592.272 754.291 593.784 754 595.311 754H616.598C617.529 754 618.46 753.889 619.368 753.681C632.08 750.765 636.36 751.208 643.6 751.958M379 730L383.351 726.954C386.849 724.506 391.384 724.1 395.261 725.89L412.922 734.041C414.295 734.675 415.775 735.043 417.285 735.127L447.724 736.818C449.869 736.937 452.006 736.478 453.913 735.49L475.406 724.345C477.11 723.461 478.578 722.181 479.685 720.612L482.512 716.607C483.493 715.218 484.167 713.637 484.49 711.967L486.012 704.106C486.642 700.848 485.896 697.475 483.95 694.788L467.254 671.731C466.424 670.586 465.804 669.303 465.421 667.942L457.748 640.659C457.256 638.909 456.373 637.294 455.165 635.936L442.636 621.841C441.557 620.626 440.735 619.205 440.221 617.663L429.508 585.525C429.171 584.513 428.7 583.55 428.109 582.663L409 554L405.936 549.02C405.326 548.03 404.433 547.245 403.372 546.767V546.767C401.315 545.842 398.907 546.191 397.198 547.663L395.995 548.699C395.669 548.98 395.286 549.187 394.873 549.306V549.306C392.483 549.995 390.346 547.634 391.27 545.325L392.182 543.046C392.694 541.765 392.543 540.314 391.778 539.167L389 535M370 340.5L372.364 349.956C373.094 352.878 372.699 355.968 371.257 358.612L369.829 361.229C368.336 363.968 367.967 367.181 368.802 370.187L371.653 380.449C372.208 382.449 372.235 384.558 371.732 386.572L368.854 398.084C368.09 401.14 369.808 404.269 372.796 405.265V405.265C375.05 406.017 376.652 408.021 376.888 410.385L377.305 414.548C377.432 415.82 377.937 417.025 378.756 418.007L382.812 422.875C384.674 425.109 383.085 428.5 380.178 428.5V428.5C378.604 428.5 377.232 429.571 376.851 431.098L373.877 442.991C373.627 443.993 373.248 444.958 372.75 445.863L363.985 461.799C363.011 463.571 362.5 465.56 362.5 467.582V480.5M370 340.5H373.755C375.562 340.5 377.345 340.908 378.972 341.693L389.533 346.792C390.506 347.262 391.539 347.598 392.603 347.791L400.771 349.277C401.568 349.421 402.294 349.826 402.835 350.428V350.428C404.58 352.366 407.734 351.908 408.855 349.554L410.229 346.669C411.027 344.993 412.581 343.801 414.407 343.464L425.862 341.354C428.843 340.805 431.921 341.405 434.479 343.032L446.975 350.984C450.419 353.175 454.747 353.493 458.375 351.622C469.503 345.882 484.47 336.606 489.647 328.127C491.616 324.904 493.31 321.201 496.149 318.709C499.918 315.401 503.951 311.245 504.5 308.5C505.14 305.298 510.096 300.6 513.929 297.486C515.581 296.143 517.699 295.186 519.696 295.924C522.25 296.867 524.788 299.45 524.757 305.232C524.745 307.376 523.794 309.383 522.454 311.057L518.406 316.117C517.155 317.681 516.316 319.533 515.964 321.504L513.017 338.005C512.111 343.081 514.522 348.22 519.228 350.326C535.191 357.469 557.131 362.82 563.004 348.328C565.007 343.385 568.02 338.473 573.14 336.98L585.711 333.313C587.544 332.779 589.475 332.679 591.34 333.086C602.197 335.458 619.5 340.644 619.5 346.5M362.5 480.5H360.528C355.266 480.5 351 484.766 351 490.028V490.028C351 493.416 349.2 496.55 346.273 498.257L345.342 498.8C341.67 500.942 340.056 505.405 341.509 509.4V509.4C342.448 511.983 344.541 513.978 347.166 514.793L372 522.5L379.78 525.834C381.567 526.6 383.14 527.788 384.366 529.297L389 535M362.5 480.5H378.921C379.969 480.5 381.013 480.365 382.023 480.084C401.485 474.675 420.121 465.784 429.487 460.337C431.483 459.175 433.735 458.496 436.044 458.513C461.018 458.694 476.823 460.791 484.182 463.448C488.694 465.077 485.531 467.555 480.796 466.786C468.664 464.813 451.077 464.349 439.094 464.407C436.716 464.418 435.641 467.327 437.408 468.917V468.917C439.199 470.529 438.135 475.165 438.084 477.574C438.02 480.664 439.859 484.906 441.651 488.072C442.19 489.024 442.972 489.833 444.011 490.177C452.633 493.028 474.384 486.693 487.566 481.96C490.124 481.042 492.902 480.986 495.539 481.646C503.139 483.547 508.554 483.392 512.046 482.571C515.144 481.842 518.288 480.5 521.471 480.5H539.385C540.127 480.5 540.866 480.417 541.604 480.338C552.409 479.189 562.868 490.705 568.384 499.045C569.834 501.238 571.832 503.008 574.394 503.595C574.772 503.682 575.14 503.774 575.5 503.887M389 535C411.333 530.333 470.8 523.8 530 535M619.5 346.5C619.5 352.9 606.167 361.833 599.5 365.5M619.5 346.5L631.355 329.816C632.435 328.296 633.187 326.536 633.282 324.674C633.35 323.338 633.277 322.037 632.881 320.71C631.147 314.888 628.309 307.504 627.385 301.5V301.5M619.5 346.5L617.629 350.271C616.798 351.947 615.586 353.406 614.09 354.53L599.5 365.5M599.5 365.5C600.661 372.647 604.72 376.551 616.034 380.711C620.999 382.536 624.5 387.119 624.5 392.409V397M624.5 397L608.918 402.61C603.463 404.573 597.831 409.928 593.346 413.6C590.14 416.225 585.443 419.492 578.722 423.42C573.952 426.208 571.458 431.765 572.821 437.12L584.181 481.749C584.393 482.58 584.697 483.383 585.062 484.16C589.727 494.102 593.085 509.373 575.5 503.887M530 535C544.667 524.629 575.5 503.887 575.5 503.887M530 535L575.5 503.887M627.385 301.5C627.958 303.837 645.483 285.462 641.5 277M627.385 301.5C636.738 299.715 642.069 277.401 645.892 272.5M679 256.002C676.812 252.282 656.683 261.869 645.892 272.5M583 207.5C577.381 206.203 574.728 206.513 572.5 204.617M583 207.5L572.5 204.617M583 207.5C583.557 208.948 586.411 210.326 587.452 213M583 207.5L587.452 213M596.305 248C594.982 244.631 597.087 241.885 596.305 238.5C595.232 233.855 594.388 229.888 593 228.5C591.946 227.446 589.183 226.635 588.516 224.5M596.305 248C597.263 250.437 600.42 253.561 604 254.708M596.305 248L604 254.708M572.5 204.617C569.743 202.272 570.168 193.614 570.752 191M572.5 204.617L570.752 191M782.5 303.492C781.59 304.75 785.476 308.631 785.524 310.5M782.5 303.492L785.524 310.5M587.452 213C588.705 216.221 587.497 221.238 588.516 224.5M587.452 213L588.516 224.5M618.5 258.395C620.022 253.603 620.386 250.734 620.155 249.104C619.952 247.673 614.371 253.634 613 254.094V254.094C610.434 254.956 607.062 255.689 604 254.708M618.5 258.395C618.716 260.817 617.183 264.584 617.806 267.5M618.5 258.395L617.806 267.5M617.806 267.5C618.227 269.471 615.76 271.489 616.365 273.5M617.806 267.5L616.365 273.5M616.365 273.5C616.951 275.449 619.684 277.391 620.5 279.277M616.365 273.5L620.5 279.277M620.5 279.277C621.687 282.021 640.384 274.646 641.5 277M620.5 279.277C620.5 279.277 633.299 277.889 641.5 277M641.5 277C643.215 275.243 645.892 272.5 645.892 272.5" stroke="black"/>
</svg>
